<?xml version="1.0" standalone="no"?>
<!DOCTYPE svg PUBLIC "-//W3C//DTD SVG 20010904//EN"
 "http://www.w3.org/TR/2001/REC-SVG-20010904/DTD/svg10.dtd">
<svg version="1.0" xmlns="http://www.w3.org/2000/svg"
 width="1000.000000pt" height="1000.000000pt" viewBox="0 0 1000.000000 1000.000000"
 preserveAspectRatio="xMidYMid meet">
<metadata>
Created by potrace 1.11, written by Peter Selinger 2001-2013
</metadata>
<g transform="translate(0.000000,1000.000000) scale(0.100000,-0.100000)"
fill="#000000" stroke="none">
<path d="M4310 5256 c0 -1139 3 -1727 10 -1731 7 -4 10 573 10 1724 0 1147 -3
1731 -10 1731 -7 0 -10 -581 -10 -1724z"/>
<path d="M3345 6773 c-53 -4 -258 -23 -315 -29 -306 -33 -786 -154 -1040 -264
l-65 -28 -130 64 c-368 181 -761 249 -1410 242 l-280 -3 1 -70 c5 -344 4
-2398 -1 -2531 l-8 -171 248 -6 c624 -17 1040 54 1434 244 l124 60 76 -34
c119 -54 402 -142 582 -181 204 -44 322 -62 564 -87 210 -22 738 -38 748 -23
3 6 9 37 12 69 4 33 13 94 20 135 7 41 10 78 7 81 -4 4 -126 9 -272 12 -535
11 -1014 100 -1353 251 -66 29 -66 24 4 106 182 214 269 456 269 749 0 310
-92 577 -270 786 l-51 60 58 27 c287 133 810 228 1351 245 196 6 202 7 202 27
0 12 -7 75 -15 141 -8 66 -15 123 -15 128 0 7 -390 7 -475 0z m-2405 -322
c176 -26 308 -55 415 -91 102 -34 225 -90 225 -101 0 -4 -29 -30 -65 -59 -92
-73 -207 -200 -275 -303 -119 -180 -166 -347 -156 -557 3 -69 14 -165 25 -213
24 -104 91 -252 158 -346 54 -76 208 -238 265 -277 21 -15 38 -30 38 -34 0 -4
-37 -23 -82 -43 -235 -100 -584 -167 -874 -167 l-144 0 0 1111 0 1112 168 -6
c92 -3 228 -15 302 -26z m1049 -508 c69 -92 127 -214 158 -331 34 -128 38
-343 10 -467 -33 -141 -131 -321 -221 -404 l-26 -25 -61 60 c-133 130 -224
298 -253 467 -12 67 -7 224 9 293 20 88 80 211 144 294 52 69 163 180 179 180
6 0 33 -30 61 -67z"/>
<path d="M4768 5935 c-5 -5 -8 -177 -8 -383 l0 -374 148 5 c207 7 300 42 400
151 61 67 82 125 82 222 0 141 -62 241 -189 308 -39 20 -101 43 -138 51 -81
17 -285 31 -295 20z m302 -114 c85 -27 157 -82 189 -146 21 -39 26 -64 26
-120 0 -56 -5 -81 -26 -120 -49 -96 -168 -158 -326 -172 l-73 -6 0 298 0 298
73 -6 c39 -3 101 -15 137 -26z"/>
<path d="M5600 5561 l0 -381 48 0 47 0 -1 378 -1 377 -47 3 -46 3 0 -380z"/>
<path d="M6234 5921 c-219 -54 -337 -185 -336 -374 1 -65 6 -89 30 -140 75
-158 254 -243 494 -235 l83 3 2 198 1 197 -49 0 -49 0 0 -155 0 -155 -48 0
c-139 0 -281 74 -335 175 -31 57 -30 173 0 231 58 110 181 172 356 182 94 5
98 6 93 26 -3 11 -6 31 -6 44 0 21 -3 22 -82 21 -46 0 -115 -8 -154 -18z"/>
<path d="M6740 5561 l0 -381 48 0 47 0 -1 378 -2 377 -46 3 -46 3 0 -380z"/>
<path d="M7907 5838 c-26 -57 -100 -220 -167 -363 -66 -143 -120 -263 -120
-267 0 -4 18 -17 39 -27 l39 -20 25 52 c13 29 42 91 62 140 l39 87 164 -2 165
-3 59 -135 c33 -74 61 -137 63 -138 2 -2 24 8 49 23 l45 26 -23 52 c-13 29
-53 115 -88 192 -36 77 -100 218 -143 313 l-78 172 -42 0 -42 0 -46 -102z
m148 -182 c31 -71 54 -130 52 -133 -2 -2 -58 -2 -124 -1 l-119 3 60 137 c33
76 64 134 68 130 4 -4 32 -65 63 -136z"/>
<path d="M8500 5561 l0 -381 230 0 230 0 0 44 0 44 -170 -5 c-135 -5 -173 -3
-186 8 -15 12 -16 46 -13 339 l4 325 -47 3 -48 3 0 -380z"/>
<path d="M6967 5923 c-4 -3 -7 -21 -7 -39 l0 -33 138 -3 137 -3 3 -332 2 -333
50 0 50 0 0 335 0 335 135 0 135 0 0 40 0 40 -318 0 c-175 0 -322 -3 -325 -7z"/>
<path d="M5595 4912 c-73 -31 -117 -64 -160 -124 -55 -73 -78 -149 -77 -253 1
-234 149 -397 362 -397 188 -1 332 131 363 332 29 189 -71 380 -229 439 -70
27 -200 28 -259 3z m197 -74 c55 -16 122 -79 154 -144 39 -79 45 -205 14 -289
-28 -74 -105 -154 -166 -173 -125 -37 -248 26 -307 157 -15 35 -20 68 -21 141
-1 84 2 102 27 155 31 67 67 109 112 132 65 34 122 41 187 21z"/>
<path d="M5044 4900 c-84 -22 -179 -68 -227 -110 -19 -16 -49 -58 -68 -92 -33
-60 -34 -68 -34 -168 0 -97 2 -109 29 -158 76 -136 248 -222 447 -222 l69 0 0
39 0 40 -57 6 c-106 11 -198 35 -249 65 -183 104 -191 339 -17 456 60 40 179
74 260 74 l54 0 -3 43 -3 42 -65 1 c-36 1 -97 -6 -136 -16z"/>
<path d="M6323 4897 l-43 -21 0 -358 0 -358 51 0 51 0 -7 300 c-5 165 -5 300
-2 300 7 0 228 -278 371 -466 l107 -142 40 22 39 21 -2 359 -3 359 -45 0 -45
0 4 -286 c2 -158 1 -287 -2 -287 -5 0 -395 486 -442 552 -11 15 -22 27 -25 27
-3 0 -24 -10 -47 -22z"/>
<path d="M8563 4897 l-43 -21 0 -358 0 -358 52 0 51 0 -7 300 c-4 165 -4 300
-2 300 8 0 208 -252 350 -440 65 -85 121 -156 125 -158 4 -1 24 4 44 13 l37
15 -2 362 -3 361 -40 0 -40 0 -5 -287 -5 -288 -146 184 c-222 277 -280 351
-296 376 -18 26 -17 26 -70 -1z"/>
<path d="M7060 4870 l0 -40 135 0 135 0 0 -335 0 -335 50 0 50 0 2 333 3 332
138 3 138 3 -3 37 -3 37 -322 3 -323 2 0 -40z"/>
<path d="M7835 4535 l0 -375 243 0 242 0 0 40 0 40 -195 0 -195 0 0 130 0 130
188 2 187 3 3 43 3 42 -191 0 -191 0 3 118 3 117 188 3 187 2 0 40 0 40 -238
0 -238 0 1 -375z"/>
<path d="M9300 4870 l0 -39 136 -3 135 -3 -1 -332 -1 -333 51 0 50 0 2 333 3
332 138 3 138 3 -3 37 -3 37 -322 3 -323 2 0 -40z"/>
<path d="M2614 3876 c-90 -22 -159 -79 -206 -169 -33 -63 -38 -212 -9 -288 91
-240 396 -275 536 -61 74 115 70 287 -11 403 -65 95 -196 143 -310 115z m151
-85 c83 -38 129 -123 129 -241 1 -63 -4 -84 -28 -133 -48 -100 -143 -146 -239
-117 -58 17 -129 92 -146 153 -19 65 -10 181 17 233 24 46 93 111 126 117 50
10 104 5 141 -12z"/>
<path d="M230 3549 l0 -322 113 6 c261 12 416 129 417 313 1 203 -166 322
-452 324 l-78 0 0 -321z m250 225 c75 -21 142 -71 170 -129 32 -66 26 -156
-15 -215 -46 -67 -135 -110 -259 -125 l-56 -7 0 252 0 253 53 -7 c28 -4 77
-14 107 -22z"/>
<path d="M930 3550 l0 -321 43 3 42 3 0 315 0 315 -42 3 -43 3 0 -321z"/>
<path d="M1458 3854 c-78 -18 -135 -48 -186 -98 -58 -54 -84 -107 -90 -181 -9
-116 43 -220 140 -281 58 -37 176 -64 280 -64 l88 0 0 165 0 165 -42 0 -43 0
3 -130 3 -130 -26 0 c-53 0 -164 32 -208 60 -122 77 -142 239 -44 340 49 51
120 78 236 92 95 12 102 14 97 33 -3 11 -6 26 -6 33 0 17 -127 15 -202 -4z"/>
<path d="M2110 3854 c-179 -47 -269 -150 -270 -304 0 -192 143 -310 390 -322
l65 -3 3 36 3 36 -69 6 c-190 16 -301 106 -302 245 0 139 87 217 275 244 l85
12 0 33 0 33 -62 -1 c-35 0 -88 -7 -118 -15z"/>
<path d="M3183 3853 l-33 -17 0 -303 0 -303 41 0 42 0 -7 258 c-7 224 -6 255
7 242 22 -23 235 -293 316 -402 41 -54 75 -98 78 -98 2 0 17 7 33 15 l30 16 0
304 0 305 -40 0 -40 0 -2 -239 -3 -238 -101 126 c-55 69 -140 177 -189 239
-49 61 -91 112 -94 111 -4 0 -21 -8 -38 -16z"/>
</g>
</svg>
